<svg xmlns="http://www.w3.org/2000/svg" style="display: none;">
  
  <!-- AI 咨询 & 问答 -->
  <symbol id="ai" viewBox="0 0 24 24" fill="none" stroke="currentColor" stroke-width="2">
    <circle cx="12" cy="12" r="3"/>
    <path d="M12 1v6m0 6v6"/>
    <path d="m5.64 7-1.41 1.41"/>
    <path d="M18.36 5.64 19.77 7.05"/>
    <path d="m5.64 17 1.41 1.41"/>
    <path d="m16.95 18.36 1.41-1.41"/>
    <path d="M1 12h6m6 0h6"/>
  </symbol>

  <!-- 安心计划 盾牌 -->
  <symbol id="shield" viewBox="0 0 24 24" fill="none" stroke="currentColor" stroke-width="2">
    <path d="M12 22s8-4 8-10V5l-8-3-8 3v7c0 6 8 10 8 10z"/>
    <path d="M9 12l2 2 4-4"/>
  </symbol>

  <!-- 接机服务 飞机 -->
  <symbol id="plane" viewBox="0 0 24 24" fill="none" stroke="currentColor" stroke-width="2">
    <path d="M17.8 19.2 16 11l3.5-3.5C21 6 21 4 19 4s-2 1-3.5 2.5L11 10l-8.2 1.8c-.5.1-.9.6-.9 1.1s.4 1 .9 1.1L11 16l4 8.2c.1.5.6.9 1.1.9s1-.4 1.1-.9z"/>
  </symbol>

  <!-- 本地折扣 -->
  <symbol id="discount" viewBox="0 0 24 24" fill="none" stroke="currentColor" stroke-width="2">
    <circle cx="8" cy="8" r="2"/>
    <path d="M14.5 14.5 21 21"/>
    <circle cx="16" cy="16" r="2"/>
    <path d="M6 18h15"/>
    <path d="M6 6h15"/>
    <path d="M9 6v12"/>
  </symbol>

  <!-- 二手交易 -->
  <symbol id="exchange" viewBox="0 0 24 24" fill="none" stroke="currentColor" stroke-width="2">
    <path d="M5 12h14"/>
    <path d="M12 5l7 7-7 7"/>
    <path d="M19 12H5"/>
    <path d="M12 19l-7-7 7-7"/>
  </symbol>

  <!-- 校友圈 毕业帽 -->
  <symbol id="mortarboard" viewBox="0 0 24 24" fill="none" stroke="currentColor" stroke-width="2">
    <path d="M22 10v6M2 10l10-5 10 5-10 5z"/>
    <path d="M6 12v5c3 3 9 3 12 0v-5"/>
  </symbol>

  <!-- 活动CRM -->
  <symbol id="crm" viewBox="0 0 24 24" fill="none" stroke="currentColor" stroke-width="2">
    <rect x="3" y="4" width="18" height="16" rx="2"/>
    <path d="M7 8h10"/>
    <path d="M7 12h4"/>
    <path d="M7 16h6"/>
  </symbol>

  <!-- 志愿者工时 时钟 -->
  <symbol id="clock" viewBox="0 0 24 24" fill="none" stroke="currentColor" stroke-width="2">
    <circle cx="12" cy="12" r="10"/>
    <polyline points="12,6 12,12 16,14"/>
  </symbol>

  <!-- 汉堡菜单 -->
  <symbol id="menu" viewBox="0 0 24 24" fill="none" stroke="currentColor" stroke-width="2">
    <line x1="4" y1="6" x2="20" y2="6"/>
    <line x1="4" y1="12" x2="20" y2="12"/>
    <line x1="4" y1="18" x2="20" y2="18"/>
  </symbol>

  <!-- 关闭 -->
  <symbol id="close" viewBox="0 0 24 24" fill="none" stroke="currentColor" stroke-width="2">
    <line x1="18" y1="6" x2="6" y2="18"/>
    <line x1="6" y1="6" x2="18" y2="18"/>
  </symbol>

  <!-- 下拉箭头 -->
  <symbol id="chevron-down" viewBox="0 0 24 24" fill="none" stroke="currentColor" stroke-width="2">
    <polyline points="6,9 12,15 18,9"/>
  </symbol>

  <!-- 邮件 -->
  <symbol id="mail" viewBox="0 0 24 24" fill="none" stroke="currentColor" stroke-width="2">
    <path d="M4 4h16c1.1 0 2 .9 2 2v12c0 1.1-.9 2-2 2H4c-1.1 0-2-.9-2-2V6c0-1.1.9-2 2-2z"/>
    <polyline points="22,6 12,13 2,6"/>
  </symbol>

  <!-- 电话 -->
  <symbol id="phone" viewBox="0 0 24 24" fill="none" stroke="currentColor" stroke-width="2">
    <path d="M22 16.92v3a2 2 0 0 1-2.18 2 19.79 19.79 0 0 1-8.63-3.07 19.5 19.5 0 0 1-6-6 19.79 19.79 0 0 1-3.07-8.67A2 2 0 0 1 4.11 2h3a2 2 0 0 1 2 1.72 12.84 12.84 0 0 0 .7 2.81 2 2 0 0 1-.45 2.11L8.09 9.91a16 16 0 0 0 6 6l1.27-1.27a2 2 0 0 1 2.11-.45 12.84 12.84 0 0 0 2.81.7A2 2 0 0 1 22 16.92z"/>
  </symbol>

  <!-- 检查标记 -->
  <symbol id="check" viewBox="0 0 24 24" fill="none" stroke="currentColor" stroke-width="2">
    <polyline points="20,6 9,17 4,12"/>
  </symbol>

  <!-- 用户 -->
  <symbol id="user" viewBox="0 0 24 24" fill="none" stroke="currentColor" stroke-width="2">
    <path d="M20 21v-2a4 4 0 0 0-4-4H8a4 4 0 0 0-4 4v2"/>
    <circle cx="12" cy="7" r="4"/>
  </symbol>

  <!-- 用户组 -->
  <symbol id="users" viewBox="0 0 24 24" fill="none" stroke="currentColor" stroke-width="2">
    <path d="M16 21v-2a4 4 0 0 0-4-4H6a4 4 0 0 0-4 4v2"/>
    <circle cx="9" cy="7" r="4"/>
    <path d="M22 21v-2a4 4 0 0 0-3-3.87"/>
    <path d="M16 3.13a4 4 0 0 1 0 7.75"/>
  </symbol>

  <!-- 箭头向右 -->
  <symbol id="arrow-right" viewBox="0 0 24 24" fill="none" stroke="currentColor" stroke-width="2">
    <line x1="5" y1="12" x2="19" y2="12"/>
    <polyline points="12,5 19,12 12,19"/>
  </symbol>

  <!-- 技术支持 -->
  <symbol id="support" viewBox="0 0 24 24" fill="none" stroke="currentColor" stroke-width="2">
    <circle cx="12" cy="12" r="10"/>
    <path d="M8 12h8"/>
    <path d="M12 8v8"/>
  </symbol>

  <!-- 信息 -->
  <symbol id="info" viewBox="0 0 24 24" fill="none" stroke="currentColor" stroke-width="2">
    <circle cx="12" cy="12" r="10"/>
    <path d="M12 16v-4"/>
    <path d="M12 8h.01"/>
  </symbol>

  <!-- 外链 -->
  <symbol id="external" viewBox="0 0 24 24" fill="none" stroke="currentColor" stroke-width="2">
    <path d="M18 13v6a2 2 0 0 1-2 2H5a2 2 0 0 1-2-2V8a2 2 0 0 1 2-2h6"/>
    <polyline points="15,3 21,3 21,9"/>
    <line x1="10" y1="14" x2="21" y2="3"/>
  </symbol>

  <!-- 加载旋转 -->
  <symbol id="spinner" viewBox="0 0 24 24" fill="none" stroke="currentColor" stroke-width="2">
    <path d="M21 12a9 9 0 1 1-6.219-8.56"/>
  </symbol>

  <!-- 警告 -->
  <symbol id="alert" viewBox="0 0 24 24" fill="none" stroke="currentColor" stroke-width="2">
    <path d="M10.29 3.86L1.82 18a2 2 0 0 0 1.71 3h16.94a2 2 0 0 0 1.71-3L13.71 3.86a2 2 0 0 0-3.42 0z"/>
    <line x1="12" y1="9" x2="12" y2="13"/>
    <line x1="12" y1="17" x2="12.01" y2="17"/>
  </symbol>

  <!-- 成功 -->
  <symbol id="success" viewBox="0 0 24 24" fill="none" stroke="currentColor" stroke-width="2">
    <path d="M22 11.08V12a10 10 0 1 1-5.93-9.14"/>
    <polyline points="22,4 12,14.01 9,11.01"/>
  </symbol>

  <!-- 时间 -->
  <symbol id="time" viewBox="0 0 24 24" fill="none" stroke="currentColor" stroke-width="2">
    <circle cx="12" cy="12" r="10"/>
    <polyline points="12,6 12,12 16,14"/>
  </symbol>

</svg>